<svg width="206" height="47" viewBox="0 0 206 47" fill="none" xmlns="http://www.w3.org/2000/svg">
    <g clip-path="url(#clip0)">
    <path d="M2.43198 5.63645C2.43198 3.86975 2.23853 2.69194 1.87926 2.10304C1.49235 1.51414 0.884357 1.14958 0 1.00937V0.672852H8.95412V1.00937C8.12503 1.0935 7.51704 1.40197 7.13013 1.96283C6.74322 2.52369 6.52214 3.6454 6.52214 5.38407V10.0112L9.75557 7.40316C11.469 5.97297 12.685 4.85125 13.4035 4.06605C14.2879 3.11259 14.7577 2.38347 14.7577 1.93478C14.7577 1.59827 14.6748 1.37393 14.509 1.26175C14.3432 1.14958 14.0944 1.06545 13.7352 1.00937V0.672852H22.7446V1.00937C21.4733 1.00937 20.202 1.40197 18.9584 2.18717C18.6268 2.38347 17.5766 3.22476 15.7526 4.73908L12.9614 7.09469C14.7853 8.80531 16.3882 10.7964 17.7701 13.0398C19.069 15.0869 20.2297 17.3864 21.2246 19.9384L21.9431 21.677C22.4406 22.9109 22.7722 23.6681 22.9104 23.9205C23.4078 24.7337 24.0435 25.1824 24.7896 25.2946V25.6311H16.5541V25.2946C17.4384 25.1543 17.853 24.6776 17.853 23.8083C17.853 22.8829 17.5213 21.5929 16.8857 19.9664C16.4159 18.8166 15.8079 17.6108 15.117 16.3489C14.3984 15.0869 13.6523 13.9372 12.8508 12.8715C12.0494 11.8059 11.1374 10.6842 10.0872 9.50638L6.54977 12.3948V20.6675C6.54977 22.1257 6.66032 23.1353 6.85377 23.6961C7.21304 24.6496 7.90394 25.1824 8.98175 25.2946V25.6311H0V25.2946C1.05017 25.1263 1.74108 24.5935 2.10035 23.7522C2.32144 23.1913 2.43198 22.2659 2.43198 20.9479V5.63645Z" fill="#FF3D00"/>
    <path d="M37.0877 11.4415C37.2535 10.9086 37.447 10.3758 37.6128 9.81497C37.7786 9.25411 37.8615 8.83347 37.8615 8.525C37.8615 8.16044 37.751 7.88001 37.5575 7.68371C37.3641 7.48741 37.0048 7.34719 36.5073 7.29111V6.95459H42.2004V7.29111C41.4542 7.40328 40.8462 7.79588 40.404 8.55304C40.2106 8.88955 39.9066 9.59063 39.5473 10.7123L33.7714 27.5942C32.9146 30.1461 31.9197 31.8287 30.8696 32.67C29.9576 33.3991 28.7692 33.7637 27.3598 33.7637C26.6965 33.7637 26.0332 33.6515 25.4252 33.4271C24.8172 33.2028 24.2092 32.8663 23.6842 32.3896L25.8121 27.2577L26.1161 27.454C26.0332 27.7625 26.0056 28.0709 26.0056 28.3514C26.0056 29.1366 26.1991 29.8096 26.6136 30.3705C27.0005 30.9313 27.5532 31.2118 28.2441 31.2118C29.3496 31.2118 30.2063 30.6789 30.8143 29.5853C31.3394 28.6879 31.5881 27.5942 31.5881 26.3603C31.5881 25.5471 31.3947 24.5656 30.9801 23.4438C30.8419 23.0232 30.455 22.0697 29.8194 20.6115L25.4805 10.516C25.0383 9.45041 24.7067 8.74934 24.4856 8.44087C23.9882 7.71175 23.4354 7.34719 22.7998 7.34719V7.01068H30.2892V7.34719C29.8747 7.40328 29.5707 7.51545 29.3772 7.71175C29.1838 7.90805 29.1009 8.16044 29.1009 8.49695C29.1009 8.77738 29.1838 9.1139 29.3496 9.53454C29.5154 9.95519 29.6259 10.2637 29.7088 10.488L33.9095 20.948L37.0877 11.4415Z" fill="#FF3D00"/>
    <path d="M59.0034 22.6586C59.3903 23.1915 59.7496 23.7243 60.1641 24.2571C60.6892 24.874 61.2143 25.2106 61.767 25.2666V25.6032H54.0565V25.2666C54.8303 25.1545 55.2172 24.874 55.2172 24.3693C55.2172 24.0047 55.0238 23.4719 54.6093 22.8269C54.2223 22.2941 53.9736 21.9015 53.7802 21.6211L50.9889 17.3585L48.2806 20.7517C46.7882 22.6586 46.042 23.8925 46.042 24.4534C46.042 24.9021 46.429 25.1825 47.1475 25.2947V25.6312H41.3992V25.2947C41.8413 25.1825 42.2559 25.0143 42.6152 24.7338C42.9744 24.4534 43.5548 23.8084 44.301 22.7989L49.8835 15.8442L46.7606 11.2732C45.5722 9.5065 44.8537 8.525 44.6326 8.27261C43.997 7.65566 43.4442 7.31915 42.9192 7.31915V6.98263H50.9336V7.31915C50.1046 7.40328 49.69 7.71175 49.69 8.30065C49.69 8.60912 49.8282 9.00173 50.0769 9.47846C50.2704 9.84301 50.5467 10.2637 50.906 10.7684L52.3154 12.8717L53.9736 10.6282C54.4987 9.8991 54.8303 9.45041 54.9132 9.25411C55.1896 8.74934 55.3554 8.3287 55.3554 8.02022C55.3554 7.54349 54.9962 7.29111 54.25 7.29111V6.95459H60.5234V7.29111C59.639 7.37523 58.7547 7.85196 57.8427 8.77738C57.6216 9.00173 56.9307 9.84301 55.7423 11.2732L53.2551 14.3018L59.0034 22.6586Z" fill="#FF3D00"/>
    <path d="M77.63 14.8069H68.814V20.9483C68.814 22.715 68.9799 23.8928 69.3391 24.4537C69.6984 25.0145 70.2511 25.295 71.0526 25.295V25.6315H62.7617V25.295C63.729 25.295 64.3923 24.8463 64.6963 23.9209C64.8897 23.332 65.0002 22.3505 65.0002 20.9763V11.638C65.0002 9.87134 64.8344 8.72157 64.4752 8.16071C64.1159 7.59986 63.5632 7.31943 62.7617 7.31943V6.98291H71.0526V7.31943C70.0853 7.31943 69.422 7.76811 69.118 8.66549C68.9246 9.25439 68.814 10.2079 68.814 11.61V13.1243H77.63V11.61C77.63 9.87134 77.4642 8.69353 77.1049 8.16071C76.7456 7.59986 76.1929 7.34747 75.3914 7.34747V7.01095H83.6823V7.34747C82.715 7.34747 82.0518 7.79616 81.7478 8.72157C81.5543 9.31048 81.4438 10.292 81.4438 11.6661V21.0044C81.4438 22.7711 81.6096 23.9209 81.9689 24.4817C82.3281 25.0426 82.8808 25.323 83.6823 25.323V25.6595H75.3914V25.323C76.3587 25.323 76.9943 24.8743 77.326 23.9489C77.5194 23.36 77.63 22.3785 77.63 20.9763V14.8069Z" fill="#FF3D00"/>
    <path d="M100.402 11.5256L91.5863 19.3215V20.9761C91.5863 22.7428 91.7521 23.8925 92.1113 24.4534C92.4706 25.0143 93.0233 25.2947 93.8248 25.2947V25.6312H85.5339V25.2947C86.5012 25.2106 87.1368 24.7338 87.4685 23.8084C87.6619 23.2475 87.7725 22.3221 87.7725 20.9761V11.6378C87.7725 10.2637 87.6896 9.33824 87.5237 8.83347C87.1921 7.90805 86.5288 7.40328 85.5339 7.31915V6.98263H93.8248V7.31915C92.8575 7.31915 92.1943 7.76784 91.8903 8.69325C91.6968 9.28216 91.5863 10.2637 91.5863 11.6378V17.1903L100.402 9.39433C100.347 8.97368 100.264 8.63717 100.153 8.44087C99.7666 7.76784 99.1309 7.37523 98.1637 7.29111V6.95459H106.455V7.29111C105.487 7.29111 104.824 7.73979 104.52 8.66521C104.327 9.25411 104.216 10.2356 104.216 11.6097V20.948C104.216 22.7147 104.382 23.8645 104.741 24.4254C105.1 24.9862 105.653 25.2666 106.455 25.2666V25.6032H98.1637V25.2666C99.1309 25.1825 99.7666 24.7058 100.098 23.7804C100.292 23.2195 100.402 22.2941 100.402 20.948V11.5256Z" fill="#FF3D00"/>
    <path d="M130.332 25.9678C130.139 25.9117 129.89 25.8836 129.586 25.8836H129.089L124.584 26.108C122.401 26.108 120.466 25.8556 118.808 25.3789C116.873 24.818 115.16 23.9487 113.695 22.7148C112.092 21.3968 110.904 19.7983 110.102 17.9475C109.301 16.0967 108.886 14.1056 108.886 11.9743C108.886 10.2637 109.19 8.63723 109.826 7.09487C110.434 5.55251 111.374 4.26253 112.617 3.22494C113.861 2.18735 115.243 1.45823 116.846 1.00955C118.449 0.560859 120.107 0.336515 121.903 0.336515L126.021 0.673031L127.209 0.785203C127.569 0.785203 127.873 0.729117 128.094 0.616945C128.315 0.504773 128.508 0.308473 128.646 0L130.36 7.12291L130.056 7.23508C129.393 5.66468 128.315 4.45883 126.822 3.5895C125.33 2.72017 123.699 2.29952 121.903 2.29952C120.577 2.29952 119.443 2.49582 118.449 2.86038C117.454 3.22494 116.569 3.89797 115.796 4.82339C115.022 5.74881 114.414 6.81444 113.999 8.02029C113.585 9.22613 113.391 10.46 113.391 11.722C113.391 15.1152 114.414 18.0036 116.459 20.3872C118.587 22.9111 121.323 24.145 124.639 24.145C126.518 24.145 128.177 23.6122 129.558 22.5746C130.94 21.537 132.046 20.1068 132.902 18.256L133.289 18.3962L130.332 25.9678Z" fill="#FF3D00"/>
    <path d="M148.931 11.5256L140.115 19.3215V20.9761C140.115 22.7428 140.281 23.8925 140.64 24.4534C141 25.0143 141.552 25.2947 142.354 25.2947V25.6312H134.063V25.2947C135.03 25.2106 135.694 24.7338 135.998 23.8084C136.191 23.2475 136.302 22.3221 136.302 20.9761V11.6378C136.302 10.2637 136.219 9.33824 136.053 8.83347C135.721 7.90805 135.058 7.40328 134.063 7.31915V6.98263H142.354V7.31915C141.387 7.31915 140.723 7.76784 140.419 8.69325C140.226 9.28216 140.115 10.2637 140.115 11.6378V17.1903L148.931 9.39433C148.876 8.97368 148.793 8.63717 148.683 8.44087C148.296 7.76784 147.66 7.37523 146.693 7.29111V6.95459H154.984V7.29111C154.016 7.29111 153.353 7.73979 153.049 8.66521C152.856 9.25411 152.745 10.2356 152.745 11.6097V20.948C152.745 22.7147 152.911 23.8645 153.27 24.4254C153.629 24.9862 154.182 25.2666 154.984 25.2666V25.6032H146.693V25.2666C147.66 25.1825 148.296 24.7058 148.627 23.7804C148.821 23.2195 148.931 22.2941 148.931 20.948V11.5256Z" fill="#FF3D00"/>
    <path d="M166.95 21.0044C166.95 22.4066 167.061 23.36 167.254 23.8928C167.613 24.8183 168.304 25.295 169.382 25.295V25.6315H160.759V25.295C161.81 25.295 162.501 24.8183 162.832 23.8648C163.053 23.2759 163.164 22.3224 163.164 21.0044V8.80573C160.981 8.80573 159.35 9.22637 158.245 10.0957C157.305 10.8248 156.448 12.1709 155.674 14.1619L155.343 14.0498L157.167 6.59033C157.305 6.78663 157.498 6.92685 157.719 6.98293C157.941 7.03902 158.245 7.06706 158.659 7.06706H159.378H170.764H171.482C171.842 7.06706 172.146 7.03902 172.394 6.98293C172.643 6.92685 172.836 6.78663 172.975 6.59033L174.799 14.0498L174.467 14.1619C173.721 12.227 172.864 10.8809 171.897 10.1518C170.791 9.28246 169.133 8.83377 166.978 8.83377V21.0044H166.95Z" fill="#FF3D00"/>
    <path d="M189.943 11.5256L181.128 19.3215V20.9761C181.128 22.7428 181.293 23.8925 181.653 24.4534C182.012 25.0143 182.565 25.2947 183.366 25.2947V25.6312H175.075V25.2947C176.042 25.2106 176.706 24.7338 177.01 23.8084C177.203 23.2475 177.314 22.3221 177.314 20.9761V11.6378C177.314 10.2637 177.231 9.33824 177.065 8.83347C176.733 7.90805 176.07 7.40328 175.075 7.31915V6.98263H183.366V7.31915C182.399 7.31915 181.736 7.76784 181.432 8.69325C181.238 9.28216 181.128 10.2637 181.128 11.6378V17.1903L189.943 9.39433C189.888 8.97368 189.805 8.63717 189.695 8.44087C189.308 7.76784 188.672 7.37523 187.705 7.29111V6.95459H195.996V7.29111C195.029 7.29111 194.365 7.73979 194.061 8.66521C193.868 9.25411 193.757 10.2356 193.757 11.6097V20.948C193.757 22.7147 193.923 23.8645 194.282 24.4254C194.642 24.9862 195.194 25.2666 195.996 25.2666V25.6032H187.705V25.2666C188.672 25.1825 189.308 24.7058 189.639 23.7804C189.833 23.2195 189.943 22.2941 189.943 20.948V11.5256Z" fill="#FF3D00"/>
    <path d="M201.799 5.97312V4.99162H202.794C203.181 4.99162 203.706 5.0477 203.706 5.4403C203.706 6.05725 202.877 5.94508 202.435 5.94508H201.799V5.97312ZM203.043 6.53398C203.706 6.50594 204.231 6.22551 204.231 5.49639C204.231 4.68314 203.568 4.48684 202.877 4.48684H201.247V8.30068H201.772V6.53398H202.407L203.513 8.30068H204.148L203.043 6.53398ZM202.546 9.87109C204.48 9.87109 205.972 8.32873 205.972 6.36572C205.972 4.40271 204.452 2.86035 202.546 2.86035C200.611 2.86035 199.091 4.40271 199.091 6.36572C199.091 8.32873 200.611 9.87109 202.546 9.87109ZM202.546 9.33827C200.97 9.33827 199.616 8.02026 199.616 6.39376C199.616 4.73923 200.97 3.44925 202.546 3.44925C204.121 3.44925 205.447 4.73923 205.447 6.39376C205.475 8.02026 204.121 9.33827 202.546 9.33827Z" fill="#FF3D00"/>
    <path d="M6.63263 44.9248C6.57736 44.8407 6.54973 44.8127 6.46682 44.7846C6.41155 44.7566 6.32864 44.7566 6.24573 44.7566H6.13518L4.61519 44.8407C3.37157 44.8407 2.32139 44.5322 1.51994 43.8872C0.60795 43.1862 0.165771 42.2047 0.165771 40.9708C0.165771 39.8491 0.552678 38.9797 1.29885 38.3347C2.01739 37.7178 2.92939 37.4093 4.03483 37.4093C4.28356 37.4093 4.53229 37.4374 4.78101 37.4654C5.02974 37.4935 5.27846 37.5495 5.55482 37.5776C5.6101 37.6056 5.66537 37.6056 5.72064 37.6056C5.77591 37.6056 5.85882 37.6056 5.94173 37.6056C6.19046 37.6056 6.35627 37.5215 6.46682 37.3252L7.07481 40.3819L6.85372 40.438C6.66027 39.8491 6.35627 39.3443 5.96937 38.9797C5.52719 38.531 5.02974 38.3347 4.44938 38.3347C3.81375 38.3347 3.31629 38.5871 2.95702 39.0919C2.65303 39.5406 2.48721 40.1014 2.48721 40.7745C2.48721 41.1671 2.54248 41.5316 2.65303 41.8962C2.76357 42.2608 2.92939 42.5973 3.15048 42.9057C3.37157 43.2142 3.67556 43.4666 4.03483 43.6629C4.3941 43.8592 4.78101 43.9433 5.16792 43.9433C5.63773 43.9433 6.07991 43.8031 6.43918 43.5507C6.82609 43.2983 7.07481 42.9338 7.26827 42.4851L7.51699 42.5692L6.63263 44.9248Z" fill="#FF3D00"/>
    <path d="M11.3583 43.2984C11.3583 43.6349 11.3583 43.8592 11.3859 43.9434C11.4412 44.2518 11.607 44.4201 11.8834 44.4201V44.7005H8.81574V44.4201C9.0092 44.4201 9.14738 44.364 9.23029 44.2238C9.31319 44.0836 9.36847 43.7751 9.36847 43.2984V40.0734C8.95392 40.0734 8.56702 40.2136 8.26302 40.466C7.95902 40.7465 7.73793 41.111 7.59975 41.5878L7.37866 41.5317L7.90375 39.2041C7.95902 39.2882 8.01429 39.3163 8.0972 39.3443C8.18011 39.3724 8.29066 39.3724 8.42884 39.3724H8.56702H8.7052H11.8834H12.1597C12.3255 39.3724 12.4637 39.3724 12.5743 39.3443C12.6848 39.3163 12.7677 39.2602 12.823 39.2041L13.3204 41.5317L13.0993 41.5878C12.9059 41.083 12.6848 40.7184 12.4361 40.466C12.1597 40.1856 11.7728 40.0454 11.3583 40.0454V43.2984Z" fill="#FF3D00"/>
    <path d="M14.0115 40.5223C14.0115 39.9334 13.8181 39.653 13.4312 39.653V39.3726H16.4988V39.653C16.1395 39.653 15.9737 39.9334 15.9737 40.5223V41.8684L17.4108 40.5223C17.4108 40.2138 17.3831 39.9895 17.3002 39.8493C17.2173 39.7091 17.1068 39.653 16.9133 39.653V39.3726H19.9533V39.653C19.5664 39.653 19.3729 39.9334 19.3729 40.5223V43.5229C19.3729 44.1118 19.5664 44.3922 19.9533 44.3922V44.6727H16.9133V44.3922C17.1068 44.3922 17.2449 44.3362 17.3002 44.1959C17.3831 44.0557 17.4108 43.8314 17.4108 43.551V41.4477L15.9737 42.7938V43.579C15.9737 44.1679 16.1395 44.4483 16.4988 44.4483V44.7288H13.4588V44.4483C13.8457 44.4483 14.0391 44.1679 14.0391 43.579V40.5223H14.0115Z" fill="#FF3D00"/>
    <path d="M22.4406 40.3819C22.1089 40.6904 21.8326 41.1391 21.6115 41.728C21.3904 42.3169 21.2799 42.9338 21.2799 43.6068C21.2799 43.8031 21.3628 43.9714 21.5562 44.1397C21.7773 44.336 22.026 44.4201 22.3577 44.4201V44.7005H20.2573V44.5883C20.2573 43.9153 20.3126 43.3264 20.4508 42.7655C20.6995 41.756 21.1417 40.8867 21.8049 40.1295C21.8602 40.0734 21.8879 40.0173 21.8879 39.9893C21.9155 39.9332 21.9155 39.9052 21.9155 39.8491C21.9155 39.7369 21.8326 39.6808 21.6668 39.6808H21.5839V39.4004H26.3096V39.6808C26.0609 39.6808 25.8951 39.793 25.8122 40.0173C25.7569 40.1575 25.7293 40.438 25.7293 40.8025V43.3545C25.7293 43.7471 25.7569 43.9994 25.8122 44.1397C25.8951 44.364 26.0609 44.4762 26.3096 44.4762V44.7566H23.2697V44.4762C23.4355 44.4762 23.5737 44.4201 23.6566 44.2799C23.7395 44.1397 23.7671 43.8312 23.7671 43.3825V40.8306C23.7671 40.5221 23.7395 40.2978 23.7118 40.1856C23.6566 40.0734 23.546 40.0173 23.3802 40.0173C23.1868 40.0173 23.0209 40.0454 22.8828 40.1015C22.7446 40.1295 22.6064 40.2417 22.4406 40.3819Z" fill="#FF3D00"/>
    <path d="M29.7919 44.0555C30.0683 44.0555 30.2894 43.9713 30.4828 43.775C30.6763 43.5787 30.7592 43.3544 30.7592 43.0459C30.7592 42.6813 30.6486 42.3729 30.3999 42.1205C30.1236 41.8401 29.7643 41.6998 29.3221 41.6998V43.2983C29.3221 43.5787 29.3498 43.775 29.405 43.8872C29.4603 44.0274 29.5985 44.0555 29.7919 44.0555ZM26.752 44.6724V44.392C26.9454 44.392 27.0836 44.3078 27.1941 44.1676C27.277 44.0274 27.3323 43.7189 27.3323 43.2703V40.7183C27.3323 40.3538 27.3047 40.1014 27.2494 39.9612C27.1665 39.7368 27.0007 39.6247 26.752 39.6247V39.3442H29.9301V39.6247C29.6537 39.6247 29.4603 39.7368 29.3774 39.9612C29.3221 40.1014 29.2945 40.3538 29.2945 40.7183V41.0549C30.2894 41.0549 31.0632 41.1951 31.6436 41.4755C32.3621 41.812 32.7214 42.3448 32.7214 43.0459C32.7214 43.5507 32.445 43.9433 31.9199 44.2237C31.3948 44.5041 30.6763 44.6444 29.7367 44.6444H26.752V44.6724Z" fill="#FF3D00"/>
    <path d="M39.0223 42.2049V43.2986C39.0223 43.607 39.0775 43.8033 39.1604 43.9155C39.2434 44.0277 39.4092 44.0838 39.6579 44.0838C39.9619 44.0838 40.2106 43.9996 40.4041 43.8033C40.5975 43.6351 40.6804 43.3547 40.6804 43.0462C40.6804 42.7658 40.6252 42.5134 40.487 42.3451C40.3764 42.1488 40.183 42.0086 39.9619 41.9525L39.0223 42.2049ZM40.0448 40.6345C40.0448 40.4662 39.9895 40.298 39.9066 40.1858C39.8237 40.0736 39.6855 39.9895 39.4921 39.9895C39.2986 39.9895 39.1881 40.0175 39.1328 40.1017C39.0499 40.2138 38.9946 40.4101 38.9946 40.7467V41.4758L39.4092 41.3636C39.6026 41.3075 39.7408 41.2234 39.8513 41.0832C39.9895 40.971 40.0448 40.8308 40.0448 40.6345ZM42.0899 40.4382C42.0899 40.6625 41.9793 40.8588 41.7306 41.0832C41.5372 41.2514 41.2884 41.3916 40.9844 41.4758C41.5095 41.5599 41.9517 41.7282 42.311 41.9806C42.6426 42.2329 42.8361 42.5695 42.8361 42.934C42.8361 43.5229 42.5597 43.9436 41.9793 44.252C41.4542 44.5325 40.791 44.6727 39.9895 44.6727H36.4797V44.3922C36.7285 44.3922 36.8943 44.2801 36.9772 44.0557C37.0325 43.8875 37.0601 43.6351 37.0601 43.2986V40.7467C37.0601 40.3821 37.0325 40.1297 36.9772 39.9895C36.8943 39.7652 36.7285 39.653 36.4797 39.653V39.3726H39.7408C40.4593 39.3726 40.9844 39.4006 41.2608 39.4847C41.8135 39.653 42.0899 39.9615 42.0899 40.4382Z" fill="#FF3D00"/>
    <path d="M49.9938 44.6724V44.392C50.2149 44.392 50.3531 44.2798 50.436 44.0555C50.4913 43.9152 50.4913 43.6348 50.4913 43.2142V42.2607L50.1596 41.9522C49.9662 42.1766 49.7727 42.5131 49.5793 42.9337C49.3858 43.3824 49.2753 43.7189 49.2753 43.9713C49.2753 44.2518 49.4135 44.392 49.7175 44.392V44.6724H46.2629V44.392C46.484 44.392 46.6775 44.2518 46.8709 43.9713C46.8986 43.9433 47.0091 43.6909 47.2578 43.2422L47.6447 42.457C47.7829 42.1766 47.9764 41.8681 48.1975 41.5316C48.3633 41.2792 48.5844 40.9707 48.8331 40.6623L48.6396 40.494C48.3633 40.2416 48.0317 40.0453 47.6724 39.8771C47.3131 39.7088 46.9538 39.6247 46.6222 39.6247V39.3442H49.6346V39.6247C49.524 39.6247 49.4411 39.6527 49.3582 39.7088C49.2753 39.7649 49.2476 39.821 49.2476 39.9331C49.2476 40.0173 49.3306 40.1575 49.524 40.3818C49.6346 40.522 49.7451 40.6623 49.8833 40.8025L50.5189 41.5035V40.494C50.5189 40.2136 50.4913 40.0173 50.4636 39.9051C50.3807 39.7088 50.2425 39.6247 50.0215 39.6247V39.3442H52.9785V39.6247C52.7574 39.6247 52.6193 39.7088 52.5363 39.9051C52.4811 40.0173 52.4811 40.2136 52.4811 40.494V41.5035L53.1167 40.8025C53.3102 40.6062 53.4483 40.4099 53.5865 40.2416C53.6971 40.0734 53.7523 39.9892 53.7523 39.9331C53.7523 39.849 53.6971 39.7649 53.6142 39.7088C53.5312 39.6527 53.4483 39.6247 53.3378 39.6247V39.3442H56.3501V39.6247C55.9909 39.6247 55.6592 39.7088 55.3 39.849C54.9407 40.0173 54.6367 40.2136 54.3327 40.466L54.1392 40.6342C54.4156 40.9988 54.6367 41.2792 54.7749 41.5035C54.9683 41.784 55.1618 42.1205 55.3276 42.429L55.7145 43.2142C55.908 43.6348 56.0461 43.8872 56.0738 43.9433C56.2672 44.2237 56.4607 44.3639 56.7094 44.3639V44.6444H53.3102V44.3639C53.5589 44.3639 53.6971 44.2237 53.6971 43.9433C53.6971 43.6909 53.5865 43.3263 53.3931 42.9057C53.1996 42.485 53.0062 42.1485 52.7851 41.8961L52.4534 42.2046V43.1581C52.4534 43.6909 52.4811 43.9994 52.564 44.1396C52.6469 44.2798 52.7574 44.3359 52.9509 44.3359V44.6163H49.9938V44.6724Z" fill="#FF3D00"/>
    <path d="M57.345 40.5223C57.345 39.9334 57.1516 39.653 56.7646 39.653V39.3726H59.8323V39.653C59.473 39.653 59.3072 39.9334 59.3072 40.5223V41.8684L60.7442 40.5223C60.7442 40.2138 60.7166 39.9895 60.6337 39.8493C60.5508 39.7091 60.4402 39.653 60.2468 39.653V39.3726H63.2868V39.653C62.8999 39.653 62.7064 39.9334 62.7064 40.5223V43.5229C62.7064 44.1118 62.8999 44.3922 63.2868 44.3922V44.6727H60.2468V44.3922C60.4402 44.3922 60.5784 44.3362 60.6337 44.1959C60.7166 44.0557 60.7442 43.8314 60.7442 43.551V41.4477L59.3072 42.7938V43.579C59.3072 44.1679 59.473 44.4483 59.8323 44.4483V44.7288H56.7646V44.4483C57.1516 44.4483 57.345 44.1679 57.345 43.579V40.5223Z" fill="#FF3D00"/>
    <path d="M67.5152 41.5879C68.0403 41.7001 68.4272 41.8683 68.7312 42.0927C69.0628 42.3451 69.2287 42.6816 69.2287 43.0742C69.2287 43.607 68.9523 44.0276 68.4272 44.3361C67.9021 44.6446 67.1283 44.8128 66.1058 44.8128C65.9676 44.8128 65.7465 44.7848 65.4425 44.7568C65.1385 44.7287 64.8898 44.7007 64.724 44.7007C64.5029 44.7007 64.2818 44.7287 64.116 44.7848L63.9778 44.8128L63.5632 43.1303L63.7843 43.0742L63.8396 43.1303C64.0054 43.3826 64.2818 43.607 64.6963 43.8033C65.1109 43.9996 65.5254 44.1118 65.9123 44.1118C66.2716 44.1118 66.5756 44.0276 66.769 43.8313C66.9901 43.635 67.073 43.3826 67.073 43.0742C67.073 42.7377 66.9625 42.4853 66.7138 42.317C66.4374 42.1207 65.9952 42.0366 65.3596 42.0366H65.249V41.4477H65.3596C65.8294 41.4477 66.1334 41.3916 66.3269 41.2514C66.4927 41.1392 66.5756 40.9149 66.5756 40.6064C66.5756 40.4381 66.4927 40.2699 66.3821 40.1577C66.2439 40.0175 66.0781 39.9614 65.8847 39.9614C65.5254 39.9614 65.1938 40.0736 64.8621 40.2699C64.5858 40.4381 64.337 40.7186 64.0883 41.0831L64.0607 41.1392L63.7843 41.0551L64.5305 39.1201L64.641 39.3164C64.6687 39.3725 64.7516 39.4005 64.8621 39.4005C65.0556 39.3725 65.249 39.3725 65.4149 39.3445C65.5807 39.3164 65.7741 39.3164 66.0229 39.3164C66.9349 39.3164 67.6258 39.4286 68.0127 39.6249C68.4272 39.8212 68.6207 40.1297 68.6207 40.5503C68.6207 40.8027 68.5101 41.027 68.2614 41.2514C68.0956 41.4196 67.8192 41.5318 67.5152 41.5879Z" fill="#FF3D00"/>
    <path d="M70.0301 40.5223C70.0301 39.9334 69.8366 39.653 69.4497 39.653V39.3726H72.4897V39.653C72.2962 39.653 72.1581 39.7091 72.1028 39.8493C72.0199 39.9895 71.9922 40.2138 71.9922 40.5223V41.0271H73.4293V40.5223C73.4293 40.2138 73.4017 39.9895 73.3188 39.8493C73.2359 39.7091 73.1253 39.653 72.9319 39.653V39.3726H75.9719V39.653C75.5849 39.653 75.3915 39.9334 75.3915 40.5223V43.5229C75.3915 44.1118 75.5849 44.3922 75.9719 44.3922V44.6727H72.9319V44.3922C73.1253 44.3922 73.2635 44.3362 73.3188 44.1959C73.4017 44.0557 73.4293 43.8314 73.4293 43.551V41.7282H71.9922V43.551C71.9922 43.8594 72.0199 44.0838 72.1028 44.1959C72.1857 44.3362 72.2962 44.3922 72.4897 44.3922V44.6727H69.4497V44.3922C69.8366 44.3922 70.0301 44.1118 70.0301 43.5229V40.5223Z" fill="#FF3D00"/>
    <path d="M76.9944 40.5223C76.9944 39.9334 76.801 39.653 76.4141 39.653V39.3726H79.4817V39.653C79.1224 39.653 78.9566 39.9334 78.9566 40.5223V41.8684L80.3937 40.5223C80.3937 40.2138 80.366 39.9895 80.2831 39.8493C80.2002 39.7091 80.0897 39.653 79.8962 39.653V39.3726H82.9362V39.653C82.5493 39.653 82.3558 39.9334 82.3558 40.5223V43.5229C82.3558 44.1118 82.5493 44.3922 82.9362 44.3922V44.6727H79.8962V44.3922C80.0897 44.3922 80.2279 44.3362 80.2831 44.1959C80.366 44.0557 80.3937 43.8314 80.3937 43.551V41.4477L78.9566 42.7938V43.579C78.9566 44.1679 79.1224 44.4483 79.4817 44.4483V44.7288H76.4141V44.4483C76.801 44.4483 76.9944 44.1679 76.9944 43.579V40.5223Z" fill="#FF3D00"/>
    <path d="M89.2373 42.9897C89.182 42.8495 89.1267 42.7934 89.0162 42.7373C88.9056 42.7093 88.7674 42.6812 88.574 42.6812H88.3253H88.0213C87.8278 42.6812 87.662 42.7093 87.5238 42.7373C87.3856 42.7654 87.2751 42.8495 87.1922 42.9897L87.0264 42.9056L87.7725 41.1108C87.8002 41.195 87.8555 41.2791 87.9384 41.3071C88.0213 41.3352 88.1042 41.3632 88.2147 41.3632H88.4082H89.0714C89.3202 41.3632 89.486 41.3352 89.5689 41.3071C89.6518 41.2791 89.7347 41.223 89.79 41.1108L89.9558 41.195L89.2373 42.9897Z" fill="#FF3D00"/>
    <path d="M96.7266 41.5317L97.5004 40.7745C97.9149 40.3819 98.1084 40.1015 98.1084 39.9332C98.1084 39.8491 98.0531 39.7649 97.9702 39.7369C97.8873 39.6808 97.7767 39.6808 97.6662 39.6808V39.4004H100.761V39.6808C100.402 39.6808 100.071 39.7649 99.7113 39.9052C99.352 40.0734 99.048 40.2697 98.744 40.5221L98.5506 40.6904C98.8269 41.0549 99.048 41.3354 99.1862 41.5597C99.3796 41.8401 99.5731 42.1766 99.7389 42.4851L100.126 43.2703C100.347 43.719 100.485 43.9714 100.513 43.9994C100.706 44.2799 100.9 44.4201 101.121 44.4201V44.7005H97.6662V44.4201C97.8044 44.4201 97.9149 44.392 97.9978 44.3079C98.0807 44.2238 98.136 44.1396 98.136 43.9994C98.136 43.747 97.9978 43.3825 97.7491 42.9338C97.5557 42.5692 97.3069 42.2608 97.0858 41.9523L96.7542 42.2608V43.2142C96.7542 43.6349 96.7818 43.9153 96.8095 44.0555C96.8647 44.2799 97.0306 44.4201 97.2517 44.4201V44.7005H94.2117V44.4201C94.5986 44.4201 94.792 44.1397 94.792 43.5507V40.5502C94.792 39.9613 94.5986 39.6808 94.2117 39.6808V39.4004H97.2517V39.6808C97.0582 39.6808 96.8924 39.7649 96.8371 39.9612C96.7818 40.1015 96.7542 40.2697 96.7542 40.5502V41.5317H96.7266Z" fill="#FF3D00"/>
    <path d="M105.128 43.4103C105.183 43.2701 105.239 43.0738 105.294 42.8495C105.321 42.6251 105.349 42.4008 105.349 42.2045C105.349 41.9241 105.321 41.6717 105.294 41.3912C105.266 41.1389 105.183 40.8865 105.1 40.7182C105.017 40.5219 104.907 40.3817 104.769 40.2695C104.603 40.1293 104.437 40.0732 104.271 40.0732C103.884 40.0732 103.608 40.2976 103.442 40.7182C103.304 41.0267 103.249 41.3912 103.249 41.8399C103.249 42.3447 103.332 42.7934 103.47 43.186C103.663 43.7469 103.995 43.9992 104.41 43.9992C104.575 43.9992 104.714 43.9432 104.852 43.831C104.962 43.7188 105.073 43.5786 105.128 43.4103ZM102.143 44.2516C101.812 44.0273 101.563 43.7469 101.397 43.3543C101.231 42.9617 101.148 42.569 101.148 42.1484C101.148 41.251 101.48 40.5219 102.116 39.9891C102.724 39.4843 103.47 39.2319 104.382 39.2319C105.266 39.2319 105.985 39.4563 106.537 39.933C107.145 40.4378 107.449 41.1389 107.449 42.0362C107.449 42.9056 107.118 43.6066 106.482 44.1114C105.902 44.5881 105.156 44.8125 104.271 44.8125C103.857 44.8125 103.498 44.7564 103.111 44.6723C102.779 44.6162 102.42 44.4479 102.143 44.2516Z" fill="#FF3D00"/>
    <path d="M109.301 43.2422C109.301 43.747 109.356 44.0555 109.439 44.1957C109.522 44.3359 109.688 44.42 109.909 44.42V44.7004H107.919V44.42C108.196 44.392 108.361 44.2518 108.417 44.0555C108.472 43.9433 108.472 43.6909 108.472 43.2983V40.8586C108.472 40.466 108.444 40.2136 108.417 40.0734C108.334 39.849 108.168 39.7088 107.919 39.6527V39.3723H111.125V39.6527C110.987 39.6527 110.904 39.7368 110.904 39.8771C110.904 40.0173 110.987 40.1575 111.125 40.3257L111.761 41.2231L112.396 40.3257C112.534 40.1294 112.59 39.9892 112.59 39.821C112.59 39.6808 112.534 39.6247 112.424 39.6247V39.3442H115.243V39.6247C114.966 39.6808 114.801 39.7929 114.745 39.9892C114.69 40.1014 114.69 40.3538 114.69 40.7183V43.1861C114.69 43.6348 114.718 43.9152 114.745 44.0274C114.828 44.2518 114.994 44.3639 115.243 44.3639V44.6444H112.203V44.3639C112.424 44.3639 112.562 44.2798 112.617 44.1396C112.673 44.0274 112.7 43.8311 112.7 43.5507V43.2422V41.0549L110.959 43.4666L109.273 41.0829V43.2422H109.301Z" fill="#FF3D00"/>
    <path d="M121.24 43.2144C121.24 43.7752 121.378 44.0276 121.654 44.0276C121.986 44.0276 122.235 43.8593 122.428 43.4948C122.594 43.1302 122.705 42.6815 122.705 42.1487C122.705 41.5598 122.594 41.055 122.373 40.6344C122.152 40.2138 121.848 39.9894 121.461 39.9894L121.295 40.0175V43.2144H121.24ZM119.278 40.0175L119.112 39.9894C118.725 39.9894 118.421 40.1857 118.2 40.6344C117.979 41.055 117.868 41.5598 117.868 42.1487C117.868 42.7096 117.951 43.1583 118.117 43.5228C118.283 43.8874 118.532 44.0556 118.891 44.0556C119.029 44.0556 119.14 43.9996 119.195 43.8593C119.25 43.7191 119.278 43.5228 119.278 43.2144V40.0175ZM119.278 38.7275C119.278 38.1666 119.084 37.8581 118.697 37.8581V37.5777L121.24 37.4375V39.2883C121.268 39.2883 121.378 39.2883 121.516 39.2603C121.682 39.2322 121.793 39.2322 121.848 39.2322C122.732 39.2322 123.423 39.4846 123.976 40.0175C124.501 40.5503 124.777 41.2794 124.777 42.2328C124.777 42.6254 124.694 42.99 124.556 43.3265C124.39 43.663 124.169 43.9435 123.893 44.1959C123.617 44.4202 123.313 44.5885 123.009 44.6726C122.705 44.7567 122.345 44.8128 121.958 44.8128L121.24 44.7567V45.9065C121.24 46.1869 121.295 46.3832 121.406 46.5515C121.516 46.7197 121.682 46.7758 121.875 46.7758V47.0562H118.559V46.7758C118.753 46.7758 118.918 46.6917 119.057 46.5515C119.167 46.4112 119.25 46.1869 119.25 45.9065V44.7567L118.532 44.8128C118.145 44.8128 117.785 44.7567 117.481 44.6726C117.177 44.5885 116.873 44.4202 116.597 44.1959C116.321 43.9715 116.1 43.6911 115.934 43.3265C115.768 42.99 115.713 42.6254 115.713 42.2328C115.713 41.2794 115.989 40.5503 116.514 40.0175C117.039 39.4846 117.758 39.2322 118.642 39.2322C118.78 39.2322 118.863 39.2322 118.974 39.2603C119.057 39.2603 119.167 39.2883 119.278 39.2883V38.7275Z" fill="#FF3D00"/>
    <path d="M129.227 43.4103C129.282 43.2701 129.337 43.0738 129.392 42.8495C129.42 42.6251 129.448 42.4008 129.448 42.2045C129.448 41.9241 129.42 41.6717 129.392 41.3912C129.365 41.1389 129.282 40.8865 129.199 40.7182C129.116 40.5219 129.006 40.3817 128.867 40.2695C128.702 40.1293 128.536 40.0732 128.37 40.0732C127.983 40.0732 127.707 40.2976 127.541 40.7182C127.403 41.0267 127.347 41.3912 127.347 41.8399C127.347 42.3447 127.43 42.7934 127.568 43.186C127.762 43.7469 128.094 43.9992 128.508 43.9992C128.674 43.9992 128.812 43.9432 128.95 43.831C129.061 43.7188 129.144 43.5786 129.227 43.4103ZM126.242 44.2516C125.91 44.0273 125.662 43.7469 125.496 43.3543C125.33 42.9617 125.247 42.569 125.247 42.1484C125.247 41.251 125.579 40.5219 126.214 39.9891C126.822 39.4843 127.568 39.2319 128.48 39.2319C129.365 39.2319 130.083 39.4563 130.636 39.933C131.244 40.4378 131.548 41.1389 131.548 42.0362C131.548 42.9056 131.216 43.6066 130.581 44.1114C130 44.5881 129.254 44.8125 128.37 44.8125C127.955 44.8125 127.596 44.7564 127.209 44.6723C126.85 44.6162 126.518 44.4479 126.242 44.2516Z" fill="#FF3D00"/>
    <path d="M134.533 43.2142C134.533 43.3263 134.533 43.4385 134.533 43.5507C134.533 43.6629 134.56 43.775 134.616 43.8311C134.726 43.9713 134.837 44.0274 135.03 44.0274C135.5 44.0274 135.832 43.8031 136.108 43.3824C136.329 43.0179 136.412 42.5972 136.412 42.0924C136.412 41.5316 136.274 41.0549 135.97 40.6903C135.638 40.2697 135.224 40.0734 134.671 40.0734H134.533V43.2142ZM135.279 39.4003C135.749 39.4003 136.163 39.4284 136.523 39.5125C136.882 39.5966 137.213 39.7649 137.517 40.0173C137.821 40.2697 138.07 40.6062 138.264 40.9707C138.457 41.3633 138.54 41.7559 138.54 42.1766C138.54 43.0179 138.236 43.6909 137.6 44.1957C137.352 44.42 136.992 44.5602 136.523 44.6724C136.163 44.7565 135.776 44.7846 135.362 44.7846C135.224 44.7846 135.113 44.7846 134.947 44.7565C134.809 44.7565 134.671 44.7285 134.533 44.7004V45.8502C134.533 46.1306 134.588 46.3269 134.699 46.4952C134.809 46.6354 134.975 46.7195 135.168 46.7195V47H131.852V46.7195C132.046 46.7195 132.211 46.6354 132.349 46.4952C132.488 46.355 132.543 46.1306 132.543 45.8502V40.494C132.543 39.9331 132.349 39.6247 131.963 39.6247V39.3442H135.279V39.4003Z" fill="#FF3D00"/>
    <path d="M142.603 43.2984C142.603 43.6349 142.603 43.8592 142.63 43.9434C142.686 44.2518 142.851 44.4201 143.128 44.4201V44.7005H140.06V44.4201C140.254 44.4201 140.392 44.364 140.502 44.2238C140.585 44.0836 140.64 43.7751 140.64 43.2984V40.0734C140.226 40.0734 139.839 40.2136 139.535 40.466C139.231 40.7465 139.01 41.111 138.872 41.5878L138.651 41.5317L139.176 39.2041C139.231 39.2882 139.286 39.3163 139.369 39.3443C139.452 39.3724 139.563 39.3724 139.701 39.3724H139.839H139.977H143.155H143.432C143.598 39.3724 143.708 39.3724 143.846 39.3443C143.957 39.3163 144.04 39.2602 144.095 39.2041L144.592 41.5317L144.371 41.5878C144.178 41.083 143.957 40.7184 143.708 40.466C143.432 40.1856 143.045 40.0454 142.63 40.0454V43.2984H142.603Z" fill="#FF3D00"/>
    <path d="M148.848 40.5223C148.848 39.9334 148.655 39.653 148.268 39.653V39.3726H151.308V39.653C151.115 39.653 150.976 39.7091 150.921 39.8493C150.838 39.9895 150.811 40.2138 150.811 40.5223V41.0271H152.248V40.5223C152.248 40.2138 152.22 39.9895 152.137 39.8493C152.054 39.7091 151.944 39.653 151.75 39.653V39.3726H154.79V39.653C154.403 39.653 154.21 39.9334 154.21 40.5223V43.5229C154.21 44.1118 154.403 44.3922 154.79 44.3922V44.6727H151.75V44.3922C151.944 44.3922 152.082 44.3362 152.137 44.1959C152.22 44.0557 152.248 43.8314 152.248 43.551V41.7282H150.811V43.551C150.811 43.8594 150.838 44.0838 150.921 44.1959C151.004 44.3362 151.115 44.3922 151.308 44.3922V44.6727H148.268V44.3922C148.655 44.3922 148.848 44.1118 148.848 43.5229V40.5223Z" fill="#FF3D00"/>
    <path d="M157.885 42.0643C157.72 42.1764 157.554 42.3167 157.443 42.513C157.305 42.6812 157.25 42.8775 157.25 43.0738C157.25 43.2421 157.305 43.4103 157.416 43.5506C157.526 43.6908 157.664 43.7469 157.83 43.7469C158.217 43.7469 158.493 43.4945 158.632 43.0177C158.742 42.6812 158.797 42.2606 158.797 41.7838C158.576 41.8119 158.41 41.868 158.272 41.896C158.162 41.9241 158.024 41.9801 157.885 42.0643ZM158.797 41.0547V40.8584C158.797 40.7463 158.797 40.6341 158.77 40.55C158.742 40.4658 158.714 40.4097 158.659 40.3256C158.549 40.2134 158.438 40.1574 158.3 40.1013C158.162 40.0732 158.024 40.0452 157.83 40.0452C157.416 40.0452 157.029 40.1574 156.697 40.3817C156.365 40.606 156.117 40.9426 155.951 41.3352H155.73L155.951 39.4002C156.006 39.4563 156.061 39.5124 156.117 39.5404C156.172 39.5685 156.227 39.5965 156.31 39.5965C156.365 39.5965 156.448 39.5965 156.531 39.5685C156.614 39.5404 156.669 39.5404 156.752 39.5124C157.277 39.4002 157.692 39.3161 157.941 39.288C158.189 39.26 158.438 39.2319 158.687 39.2319C159.018 39.2319 159.322 39.26 159.599 39.3161C159.875 39.3721 160.096 39.4843 160.317 39.6245C160.538 39.7928 160.677 40.0171 160.732 40.3537C160.787 40.55 160.787 40.8584 160.787 41.251V43.214V43.4384C160.787 43.7188 160.815 43.9432 160.87 44.0553C160.953 44.2516 161.119 44.3638 161.368 44.3918V44.6723H159.184C159.101 44.5881 159.018 44.476 158.963 44.3638C158.908 44.2236 158.853 44.1114 158.825 43.9712C158.659 44.2236 158.355 44.4479 157.968 44.6162C157.609 44.7564 157.25 44.8405 156.89 44.8405C156.476 44.8405 156.117 44.7284 155.813 44.504C155.481 44.2516 155.315 43.9151 155.315 43.4945C155.315 42.9897 155.536 42.541 155.951 42.2045C156.282 41.9241 156.752 41.6997 157.36 41.5034C157.775 41.3632 158.272 41.2791 158.853 41.1949V41.0547H158.797Z" fill="#FF3D00"/>
    <path d="M167.724 41.5317L168.498 40.7745C168.912 40.3819 169.106 40.1015 169.106 39.9332C169.106 39.8491 169.05 39.7649 168.968 39.7369C168.885 39.6808 168.774 39.6808 168.664 39.6808V39.4004H171.759V39.6808C171.399 39.6808 171.068 39.7649 170.709 39.9052C170.349 40.0734 170.045 40.2697 169.741 40.5221L169.548 40.6904C169.824 41.0549 170.045 41.3354 170.183 41.5597C170.377 41.8401 170.57 42.1766 170.736 42.4851L171.123 43.2703C171.344 43.719 171.482 43.9714 171.51 43.9994C171.703 44.2799 171.897 44.4201 172.118 44.4201V44.7005H168.664V44.4201C168.802 44.4201 168.912 44.392 168.995 44.3079C169.078 44.2238 169.133 44.1396 169.133 43.9994C169.133 43.747 168.995 43.3825 168.746 42.9338C168.553 42.5692 168.304 42.2608 168.083 41.9523L167.752 42.2608V43.2142C167.752 43.6349 167.779 43.9153 167.807 44.0555C167.862 44.2799 168.028 44.4201 168.249 44.4201V44.7005H165.209V44.4201C165.596 44.4201 165.789 44.1397 165.789 43.5507V40.5502C165.789 39.9613 165.596 39.6808 165.209 39.6808V39.4004H168.249V39.6808C168.056 39.6808 167.89 39.7649 167.834 39.9612C167.779 40.1015 167.752 40.2697 167.752 40.5502V41.5317H167.724Z" fill="#FF3D00"/>
    <path d="M176.485 40.7467C176.54 40.6065 176.568 40.4662 176.595 40.3821C176.623 40.2699 176.623 40.1858 176.623 40.0736C176.623 39.9334 176.568 39.8493 176.485 39.7652C176.402 39.7091 176.291 39.681 176.153 39.681V39.4006H178.309V39.681C178.032 39.681 177.811 39.8493 177.618 40.1578C177.535 40.2699 177.424 40.5504 177.258 41.0271L175.545 45.3737C175.324 45.9066 175.103 46.2992 174.882 46.5235C174.578 46.832 174.163 47.0002 173.666 47.0002C173.445 47.0002 173.224 46.9722 173.003 46.8881C172.781 46.8039 172.56 46.6918 172.367 46.5516L172.947 45.1494L173.168 45.2335C173.168 45.3177 173.168 45.4018 173.168 45.4859C173.168 45.6261 173.224 45.7664 173.362 45.8785C173.5 45.9907 173.638 46.0468 173.776 46.0468C174.053 46.0468 174.274 45.9066 174.467 45.6542C174.633 45.4018 174.716 45.1214 174.716 44.8129C174.716 44.6166 174.661 44.3642 174.578 44.1118C174.523 43.9996 174.44 43.7753 174.274 43.4388L172.892 40.5784C172.726 40.2419 172.616 40.0456 172.56 39.9615C172.395 39.7652 172.201 39.653 171.98 39.653V39.3726H175.407V39.653C175.269 39.653 175.131 39.681 175.048 39.7091C174.965 39.7652 174.909 39.8493 174.909 39.9615C174.909 40.0175 174.937 40.1017 174.965 40.2138C174.992 40.326 175.048 40.4101 175.075 40.4943L175.877 42.5134L176.485 40.7467Z" fill="#FF3D00"/>
    <path d="M184.057 43.8594C184.195 44.0557 184.306 44.1679 184.361 44.224C184.499 44.3642 184.637 44.4203 184.775 44.4203V44.7007H181.514V44.4203C181.597 44.4203 181.68 44.3922 181.735 44.3642C181.791 44.3362 181.818 44.2801 181.818 44.224C181.818 44.1399 181.791 44.0838 181.763 44.0277C181.735 43.9716 181.68 43.8875 181.625 43.7753L180.934 42.6816L180.271 43.5229C180.16 43.6631 180.077 43.7473 180.05 43.8314C179.967 43.9716 179.939 44.0838 179.939 44.1959C179.939 44.252 179.967 44.3081 179.994 44.3642C180.05 44.4203 180.133 44.4483 180.243 44.4483V44.7288H178.198V44.4483C178.447 44.3922 178.695 44.252 178.944 44.0277C179.027 43.9436 179.221 43.7192 179.497 43.3547L180.519 42.0366L179.552 40.5223C179.331 40.2138 179.221 40.0175 179.165 39.9615C178.972 39.7652 178.778 39.653 178.585 39.653V39.3726H181.901V39.653C181.791 39.681 181.708 39.681 181.625 39.7371C181.542 39.7652 181.514 39.8493 181.514 39.9334C181.514 39.9895 181.542 40.0456 181.57 40.1297C181.597 40.1858 181.68 40.326 181.763 40.4662L182.067 40.971L182.233 40.7747C182.343 40.6345 182.454 40.4943 182.537 40.3541C182.675 40.1578 182.73 39.9895 182.73 39.8773C182.73 39.7932 182.703 39.7371 182.647 39.7091C182.592 39.681 182.509 39.681 182.426 39.681V39.4006H184.416V39.681C184.167 39.7371 183.946 39.8212 183.781 39.9615C183.67 40.0456 183.504 40.2138 183.311 40.4943L182.454 41.588L184.057 43.8594Z" fill="#FF3D00"/>
    <path d="M185.605 40.5223C185.605 39.9334 185.411 39.653 185.024 39.653V39.3726H188.064V39.653C187.871 39.653 187.732 39.7091 187.677 39.8493C187.594 39.9895 187.567 40.2138 187.567 40.5223V41.0271H189.004V40.5223C189.004 40.2138 188.976 39.9895 188.893 39.8493C188.81 39.7091 188.7 39.653 188.506 39.653V39.3726H191.546V39.653C191.159 39.653 190.966 39.9334 190.966 40.5223V43.5229C190.966 44.1118 191.159 44.3922 191.546 44.3922V44.6727H188.506V44.3922C188.7 44.3922 188.838 44.3362 188.893 44.1959C188.976 44.0557 189.004 43.8314 189.004 43.551V41.7282H187.567V43.551C187.567 43.8594 187.594 44.0838 187.677 44.1959C187.76 44.3362 187.871 44.3922 188.064 44.3922V44.6727H185.024V44.3922C185.411 44.3922 185.605 44.1118 185.605 43.5229V40.5223Z" fill="#FF3D00"/>
    <path d="M195.885 41.1672V40.9989C195.885 40.7465 195.802 40.5222 195.636 40.3539C195.471 40.1857 195.277 40.0735 195.028 40.0735C194.724 40.0735 194.476 40.2418 194.31 40.5783C194.172 40.8307 194.116 41.1391 194.116 41.5317L195.885 41.1672ZM194.199 42.1767C194.255 42.6815 194.42 43.0741 194.669 43.3826C194.945 43.7471 195.332 43.9154 195.802 43.9154C196.217 43.9154 196.576 43.8032 196.908 43.5789C197.239 43.3545 197.488 43.0461 197.654 42.6535L197.875 42.7376L197.212 44.7847C197.156 44.7567 197.129 44.7286 197.101 44.7006C197.018 44.6445 196.963 44.6445 196.88 44.6445L196.659 44.6725C196.438 44.7006 196.217 44.7286 195.996 44.7567C195.775 44.7847 195.553 44.8128 195.332 44.8128C194.918 44.8128 194.531 44.7567 194.144 44.6725C193.757 44.5604 193.425 44.4202 193.122 44.1958C192.762 43.9434 192.514 43.6069 192.32 43.2424C192.127 42.8778 192.044 42.4572 192.044 42.0085C192.044 41.1391 192.375 40.4661 193.011 39.9613C193.591 39.4846 194.338 39.2603 195.222 39.2603C195.968 39.2603 196.576 39.4285 197.073 39.765C197.599 40.1576 197.93 40.6904 198.068 41.3915L194.199 42.1767Z" fill="#FF3D00"/>
    </g>
    <defs>
    <clipPath id="clip0">
    <rect width="206" height="47" fill="white"/>
    </clipPath>
    </defs>
    </svg>
